<svg xmlns="http://www.w3.org/2000/svg" viewBox="0 0 500 500" width="500" height="500">
  <defs>
    <!-- Red to Black gradient for brain outline -->
    <linearGradient id="brainGrad" x1="0%" y1="0%" x2="100%" y2="100%">
      <stop offset="0%" style="stop-color:#EF4444;stop-opacity:1" />
      <stop offset="100%" style="stop-color:#000000;stop-opacity:1" />
    </linearGradient>

    <!-- Purple accent gradient -->
    <linearGradient id="accentGrad" x1="0%" y1="0%" x2="100%" y2="100%">
      <stop offset="0%" style="stop-color:#764ba2;stop-opacity:1" />
      <stop offset="100%" style="stop-color:#667eea;stop-opacity:1" />
    </linearGradient>

    <!-- Red glow filter for edgy effect -->
    <filter id="redGlow" x="-50%" y="-50%" width="200%" height="200%">
      <feGaussianBlur in="SourceGraphic" stdDeviation="3" result="blur"/>
      <feColorMatrix in="blur" type="matrix" values="1 0 0 0 0.937  0 0 0 0 0.267  0 0 0 0 0.267  0 0 0 1 0" result="glow"/>
      <feMerge>
        <feMergeNode in="glow"/>
        <feMergeNode in="SourceGraphic"/>
      </feMerge>
    </filter>
  </defs>

  <!-- Background circle (optional, subtle) -->
  <circle cx="250" cy="250" r="220" fill="none" stroke="url(#accentGrad)" stroke-width="2" opacity="0.2"/>

  <!-- Stylized Brain Shape -->
  <g id="brain" transform="translate(250, 250)" filter="url(#redGlow)">
    <!-- Left hemisphere -->
    <path d="M -80,-60
             Q -120,-50 -120,-10
             Q -120,20 -100,45
             Q -80,65 -50,70
             Q -30,73 -10,70
             L -10,50
             Q -15,30 -25,15
             Q -35,0 -40,-15
             Q -43,-25 -42,-35
             Q -40,-50 -50,-58
             Q -60,-63 -80,-60 Z"
          fill="#000000" stroke="#EF4444" stroke-width="3"/>

    <!-- Left hemisphere details (folds) -->
    <path d="M -70,-40 Q -90,-35 -95,-15" fill="none" stroke="#EF4444" stroke-width="2.5" stroke-linecap="round"/>
    <path d="M -85,-20 Q -100,0 -95,20" fill="none" stroke="#EF4444" stroke-width="2.5" stroke-linecap="round"/>
    <path d="M -75,10 Q -85,25 -80,40" fill="none" stroke="#EF4444" stroke-width="2.5" stroke-linecap="round"/>
    <path d="M -55,25 Q -65,40 -60,55" fill="none" stroke="#764ba2" stroke-width="2" stroke-linecap="round"/>
    <path d="M -40,5 Q -50,20 -45,35" fill="none" stroke="#764ba2" stroke-width="2" stroke-linecap="round"/>

    <!-- Right hemisphere -->
    <path d="M 80,-60
             Q 120,-50 120,-10
             Q 120,20 100,45
             Q 80,65 50,70
             Q 30,73 10,70
             L 10,50
             Q 15,30 25,15
             Q 35,0 40,-15
             Q 43,-25 42,-35
             Q 40,-50 50,-58
             Q 60,-63 80,-60 Z"
          fill="#000000" stroke="#EF4444" stroke-width="3"/>

    <!-- Right hemisphere details (folds) -->
    <path d="M 70,-40 Q 90,-35 95,-15" fill="none" stroke="#EF4444" stroke-width="2.5" stroke-linecap="round"/>
    <path d="M 85,-20 Q 100,0 95,20" fill="none" stroke="#EF4444" stroke-width="2.5" stroke-linecap="round"/>
    <path d="M 75,10 Q 85,25 80,40" fill="none" stroke="#EF4444" stroke-width="2.5" stroke-linecap="round"/>
    <path d="M 55,25 Q 65,40 60,55" fill="none" stroke="#764ba2" stroke-width="2" stroke-linecap="round"/>
    <path d="M 40,5 Q 50,20 45,35" fill="none" stroke="#764ba2" stroke-width="2" stroke-linecap="round"/>

    <!-- Corpus callosum (center connection) with purple accent -->
    <ellipse cx="0" cy="20" rx="15" ry="45" fill="url(#accentGrad)" opacity="0.8"/>
    <path d="M -8,0 Q 0,-5 8,0" fill="none" stroke="#764ba2" stroke-width="2.5" stroke-linecap="round"/>
    <path d="M -10,15 Q 0,10 10,15" fill="none" stroke="#764ba2" stroke-width="2.5" stroke-linecap="round"/>
    <path d="M -10,30 Q 0,25 10,30" fill="none" stroke="#764ba2" stroke-width="2.5" stroke-linecap="round"/>

    <!-- Brain stem -->
    <path d="M -15,70 L -15,95 Q -15,105 0,105 Q 15,105 15,95 L 15,70"
          fill="url(#brainGrad)" stroke="#000000" stroke-width="2"/>

    <!-- Lightning bolt accent (rebellious element) -->
    <path d="M 50,-70 L 30,-40 L 45,-40 L 25,-10"
          fill="none" stroke="#EF4444" stroke-width="4"
          stroke-linecap="round" stroke-linejoin="round"
          opacity="0.9"/>

    <!-- Star burst accent (edgy detail) -->
    <g transform="translate(-55, -70)" opacity="0.8">
      <path d="M 0,-8 L 2,-2 L 8,0 L 2,2 L 0,8 L -2,2 L -8,0 L -2,-2 Z"
            fill="#764ba2"/>
    </g>
  </g>

  <!-- Text: RESELL REBEL -->
  <g id="text" transform="translate(250, 420)">
    <text x="0" y="0"
          font-family="Arial Black, Arial, sans-serif"
          font-size="52"
          font-weight="900"
          text-anchor="middle"
          letter-spacing="2">
      <tspan fill="#000000">RESELL</tspan>
      <tspan fill="#EF4444" dx="8">REBEL</tspan>
    </text>

    <!-- Tagline -->
    <text x="0" y="25"
          font-family="Arial, sans-serif"
          font-size="14"
          font-weight="600"
          text-anchor="middle"
          letter-spacing="3"
          fill="#764ba2">
      SMART SELLING • BOLD MOVES
    </text>
  </g>

  <!-- Decorative elements (subtle rebel touches) -->
  <circle cx="140" cy="180" r="3" fill="#EF4444" opacity="0.6"/>
  <circle cx="360" cy="170" r="3" fill="#764ba2" opacity="0.6"/>
  <circle cx="150" cy="340" r="2.5" fill="#EF4444" opacity="0.5"/>
  <circle cx="350" cy="335" r="2.5" fill="#764ba2" opacity="0.5"/>
</svg>
